<?xml version="1.0" standalone="no"?>
<!DOCTYPE svg PUBLIC "-//W3C//DTD SVG 20010904//EN"
 "http://www.w3.org/TR/2001/REC-SVG-20010904/DTD/svg10.dtd">
<svg version="1.0" xmlns="http://www.w3.org/2000/svg"
 width="262.000000pt" height="262.000000pt" viewBox="0 0 262.000000 262.000000"
 preserveAspectRatio="xMidYMid meet">
<metadata>
Created by potrace 1.11, written by Peter Selinger 2001-2013
</metadata>
<g transform="translate(0.000000,262.000000) scale(0.100000,-0.100000)"
fill="#000000" stroke="none">
<path d="M890 2451 c-223 -93 -413 -175 -422 -182 -18 -15 -358 -828 -358
-857 0 -14 96 -257 107 -271 2 -3 8 0 14 6 7 7 -5 47 -40 133 -28 68 -51 128
-51 134 0 11 336 825 343 833 5 4 796 334 819 340 9 3 198 -70 420 -162 222
-92 408 -169 415 -172 6 -2 18 -22 27 -44 11 -27 20 -37 31 -33 13 5 13 10 -1
42 -8 21 -20 42 -27 49 -17 16 -833 353 -855 352 -9 0 -199 -76 -422 -168z"/>
<path d="M928 2347 c-322 -133 -388 -164 -397 -185 -7 -13 -10 -26 -9 -27 2
-1 26 -9 53 -18 80 -26 162 -37 263 -37 l95 0 51 48 c37 35 69 55 116 70 75
26 110 27 149 7 69 -35 49 -133 -39 -191 -37 -24 -51 -44 -32 -44 4 0 20 -12
36 -26 25 -24 28 -32 22 -68 -3 -23 -9 -52 -12 -64 -7 -24 -7 -24 24 -8 57 30
109 19 165 -33 25 -23 30 -24 40 -10 7 9 58 74 114 145 104 132 196 214 287
255 73 33 150 19 224 -40 22 -17 42 -31 45 -31 3 0 -4 22 -15 48 l-21 49 -256
106 c-141 58 -315 130 -386 160 l-130 54 -387 -160z"/>
<path d="M1111 2170 c-59 -22 -69 -28 -128 -83 l-42 -40 -138 6 c-126 5 -212
21 -285 52 -16 6 -18 1 -18 -52 0 -103 1 -103 206 -103 96 0 174 -3 174 -6 0
-3 -86 -175 -190 -383 -194 -384 -262 -495 -327 -534 -40 -23 -33 -38 33 -63
84 -32 130 -7 208 111 71 107 105 175 214 430 124 290 141 323 176 350 31 24
86 49 92 42 5 -5 -44 -148 -84 -249 -17 -42 -83 -181 -147 -307 -133 -267
-138 -290 -81 -347 19 -19 40 -34 47 -34 8 0 57 86 111 193 83 166 189 347
202 347 2 0 -19 -53 -46 -117 -105 -249 -115 -309 -62 -373 21 -25 90 -59 98
-48 2 1 24 48 50 103 47 100 221 412 251 450 14 18 15 17 2 -15 -8 -19 -41
-93 -72 -165 -32 -71 -82 -188 -111 -260 l-53 -130 -358 -6 c-422 -7 -500 -16
-540 -63 -26 -31 -73 -126 -73 -149 0 -8 52 -17 173 -30 94 -9 201 -24 237
-33 36 -8 117 -17 180 -20 l115 -5 -40 36 c-22 19 -66 48 -97 64 -39 20 -53
31 -42 35 20 8 372 8 399 0 11 -3 32 -23 47 -44 30 -43 59 -64 101 -74 27 -6
27 -6 27 44 0 27 2 50 4 50 3 0 60 -12 128 -26 246 -52 265 -47 254 65 -3 35
-10 68 -16 71 -13 8 -227 57 -287 66 -24 3 -43 9 -43 13 0 18 132 398 180 517
56 140 134 301 174 361 14 21 26 47 26 58 0 25 -50 105 -65 105 -15 0 -291
-354 -365 -470 -18 -27 -34 -50 -36 -50 -12 0 55 133 103 206 40 60 38 75 -9
104 -61 37 -87 29 -165 -53 l-69 -72 38 110 c21 60 38 120 38 132 0 26 -70 83
-102 83 -32 0 -19 16 33 40 60 28 119 90 119 124 0 29 -34 56 -70 56 -14 -1
-49 -9 -79 -20z"/>
<path d="M1871 2139 c-25 -10 -161 -107 -161 -115 0 -3 16 -30 35 -60 l36 -56
29 40 c37 51 88 90 128 98 55 11 48 -17 -90 -326 -50 -113 -97 -210 -105 -216
-8 -7 -43 -15 -79 -19 -44 -4 -67 -12 -71 -22 -9 -22 33 -102 58 -111 20 -8
19 -13 -40 -125 -69 -132 -76 -172 -38 -227 22 -33 74 -78 80 -69 2 2 48 102
103 223 107 237 107 236 188 236 l43 0 -69 -172 c-38 -95 -85 -218 -104 -273
-73 -206 -35 -334 107 -368 l27 -7 4 128 c5 126 6 129 72 322 138 398 284 740
385 897 50 79 52 83 41 122 -11 40 -61 101 -84 101 -11 0 -305 -583 -320 -635
-5 -18 -13 -20 -71 -17 -36 2 -65 5 -65 7 0 1 18 47 41 101 61 147 126 324
144 394 l16 62 -33 30 c-65 59 -146 81 -207 57z"/>
<path d="M2130 2021 c0 -31 -38 -146 -106 -319 -35 -90 -64 -168 -64 -173 0
-5 13 -9 29 -9 27 0 33 8 91 128 34 70 75 157 92 194 l30 68 -27 65 c-28 65
-45 82 -45 46z"/>
<path d="M1892 1993 c-12 -8 -38 -37 -58 -64 -20 -27 -42 -49 -50 -49 -8 0
-14 -8 -14 -19 0 -10 -19 -48 -43 -84 -47 -71 -133 -254 -125 -263 3 -3 33 -2
65 2 l60 6 96 217 c118 265 120 271 104 270 -6 0 -22 -7 -35 -16z"/>
<path d="M444 1953 c-8 -21 -62 -151 -119 -289 l-104 -252 71 -171 71 -171 25
22 c49 46 104 141 271 476 94 188 171 344 171 347 0 3 -70 5 -155 5 -142 0
-157 2 -175 20 -11 11 -20 27 -20 35 0 28 -20 15 -36 -22z"/>
<path d="M998 1813 c-22 -24 -153 -308 -219 -475 -32 -82 -89 -188 -149 -280
l-58 -88 84 0 c46 0 84 2 84 4 0 2 -7 17 -15 32 -33 63 -23 96 106 355 94 188
209 450 209 476 0 11 -20 -1 -42 -24z"/>
<path d="M2390 1667 c0 -3 23 -58 50 -123 28 -65 50 -124 50 -130 0 -18 -331
-817 -344 -831 -12 -13 -812 -346 -831 -346 -19 0 -819 334 -836 349 -22 19
-43 18 -35 -2 5 -13 3 -14 -7 -6 -15 13 -43 -1 -33 -16 3 -6 -16 -30 -44 -53
-39 -33 -47 -45 -39 -55 9 -11 21 -6 62 29 28 23 59 41 69 39 21 -4 23 8 6 27
-7 7 7 4 32 -7 25 -10 221 -92 435 -181 l390 -161 429 177 428 178 174 420
c96 231 174 429 173 440 -1 38 -95 250 -112 253 -10 2 -17 1 -17 -1z"/>
<path d="M2280 1604 c-62 -139 -156 -386 -247 -649 -40 -116 -46 -142 -50
-242 -4 -72 -2 -113 4 -113 6 0 31 9 55 20 l45 20 99 237 c54 131 126 305 160
386 l62 148 -45 112 c-26 62 -50 116 -54 121 -4 4 -17 -14 -29 -40z"/>
<path d="M1481 1213 c-40 -114 -75 -220 -78 -235 -5 -26 -3 -28 28 -28 19 0
61 -7 94 -14 33 -8 62 -13 64 -10 3 2 -7 17 -22 32 -65 68 -63 130 8 265 54
101 55 104 36 121 -11 10 -25 31 -31 47 -7 16 -15 29 -19 29 -4 0 -40 -93 -80
-207z"/>
<path d="M1876 1338 c-16 -24 -196 -415 -199 -432 -1 -5 9 -12 23 -16 19 -4
26 -13 28 -38 2 -18 6 -32 10 -32 4 0 18 35 30 78 18 59 125 345 169 450 10
23 -45 14 -61 -10z"/>
<path d="M914 1054 c-19 -41 -34 -77 -34 -80 0 -2 29 -4 65 -4 36 0 65 2 65 4
0 3 -10 21 -21 41 -12 20 -22 54 -23 76 0 21 -4 39 -9 39 -4 0 -24 -34 -43
-76z"/>
<path d="M850 742 c0 -4 12 -15 28 -24 15 -9 47 -37 72 -62 l44 -46 -134 0
c-84 0 -152 5 -180 14 -69 20 -140 29 -140 17 0 -6 5 -11 11 -11 7 0 181 -70
387 -156 l376 -155 268 110 c147 61 272 111 278 111 20 0 9 19 -24 39 -39 25
-58 50 -76 105 l-12 38 -22 -26 c-34 -43 -75 -46 -216 -14 -166 37 -160 38
-160 -17 0 -40 -2 -45 -22 -45 -57 0 -98 22 -145 75 l-48 55 -142 0 c-79 0
-143 -4 -143 -8z"/>
<path d="M2196 551 c-16 -18 -15 -21 36 -69 29 -28 55 -52 58 -53 3 -2 16 4
30 14 18 13 21 20 13 28 -9 9 -16 9 -26 0 -20 -16 -38 8 -30 38 6 22 4 23 -20
17 -14 -3 -29 -2 -32 4 -3 5 -1 10 4 10 6 0 11 7 11 15 0 21 -24 19 -44 -4z"/>
<path d="M465 420 l-58 -58 29 -27 28 -26 60 60 c47 47 58 63 48 73 -9 9 -18
6 -39 -13 l-28 -24 23 26 c26 30 27 35 8 42 -8 3 -38 -19 -71 -53z m25 -33 c0
-2 -10 -12 -22 -23 l-23 -19 19 23 c18 21 26 27 26 19z"/>
<path d="M2090 445 c-20 -24 2 -62 42 -74 18 -5 25 -10 16 -10 -21 -1 -22 -10
-3 -35 20 -26 65 -14 65 18 0 24 -28 56 -49 56 -8 0 -11 6 -7 16 14 36 -39 59
-64 29z"/>
<path d="M587 315 l-47 -64 25 -17 c20 -13 29 -14 38 -5 9 9 9 14 -2 21 -21
13 4 40 30 33 17 -5 20 -1 17 23 -3 25 0 29 20 26 12 -2 22 2 22 9 0 13 -30
38 -45 38 -5 0 -31 -29 -58 -64z"/>
<path d="M1980 363 c-14 -9 -27 -18 -29 -19 -2 -2 14 -33 35 -69 40 -68 64
-80 87 -43 11 16 -15 77 -53 128 -14 19 -16 19 -40 3z"/>
<path d="M1831 272 c-7 -13 -1 -33 22 -77 34 -64 51 -74 82 -51 20 15 19 16
-14 81 -27 51 -40 65 -58 65 -12 0 -27 -8 -32 -18z"/>
<path d="M854 247 c-18 -51 -44 -132 -44 -138 0 -11 70 -41 83 -36 10 3 57
121 57 142 0 18 -32 28 -42 13 -6 -10 -8 -9 -8 3 0 20 -39 33 -46 16z"/>
<path d="M1705 227 c-17 -13 -17 -16 0 -79 21 -80 29 -93 46 -82 8 5 20 9 27
10 22 4 22 7 -1 87 -23 80 -35 91 -72 64z"/>
<path d="M1011 125 c-17 -55 -20 -80 -12 -88 7 -7 13 -3 20 14 10 24 10 24 10
2 1 -13 7 -23 15 -23 10 0 16 19 21 64 8 76 5 100 -16 104 -12 2 -22 -16 -38
-73z"/>
<path d="M1166 162 c-9 -15 -18 -152 -10 -153 62 -8 64 -8 64 14 0 12 3 32 6
45 5 18 2 22 -15 22 -17 0 -21 6 -20 28 2 23 2 24 6 5 2 -13 10 -23 18 -23 17
0 27 41 13 57 -11 14 -54 18 -62 5z"/>
<path d="M1425 160 c-10 -16 4 -131 17 -147 27 -33 73 -2 62 41 -7 30 -30 35
-37 8 -3 -11 -5 -8 -6 9 -1 19 5 28 18 32 31 8 13 61 -21 65 -14 2 -29 -2 -33
-8z"/>
<path d="M1310 80 c0 -73 2 -80 20 -80 18 0 20 7 20 80 0 73 -2 80 -20 80 -18
0 -20 -7 -20 -80z"/>
</g>
</svg>
